<svg width="14" height="14" viewBox="0 0 14 14" fill="none" xmlns="http://www.w3.org/2000/svg">
<rect x="4.84619" y="7.14288" width="4.84615" height="4.39561" fill="#E7DFEC"/>
<path d="M9.19206 2.95962e-05C10.0443 2.95962e-05 10.7351 1.32287 10.7351 2.44366C10.7351 3.56445 10.0443 4.47302 9.19206 4.47302C8.33989 4.47302 7.64905 3.56445 7.64905 2.44366C7.64905 1.32287 8.33989 2.95962e-05 9.19206 2.95962e-05Z" fill="#6750A3"/>
<path d="M4.80791 2.95962e-05C5.66008 2.95962e-05 6.35092 1.32287 6.35092 2.44366C6.35092 3.56445 5.66008 4.47302 4.80791 4.47302C3.95572 4.47302 3.26489 3.56445 3.26489 2.44366C3.26489 1.32287 3.95572 2.95962e-05 4.80791 2.95962e-05Z" fill="#6750A3"/>
<path d="M0.186972 5.91089C-0.174936 4.98635 -0.0164396 3.65649 0.705977 3.36203C1.42841 3.06758 2.44117 3.92007 2.80308 4.84458C3.16499 5.76912 2.87273 6.7573 2.1503 7.05174C1.42788 7.34621 0.548881 6.83542 0.186972 5.91089Z" fill="#6750A3"/>
<path d="M13.813 5.91089C13.4511 6.83542 12.5721 7.34621 11.8497 7.05174C11.1273 6.7573 10.835 5.76912 11.1969 4.84458C11.5588 3.92007 12.5716 3.06758 13.294 3.36203C14.0165 3.65649 14.1749 4.98635 13.813 5.91089Z" fill="#6750A3"/>
<path d="M8.62383 10.1058C8.4135 10.4979 8.08154 10.8434 7.80126 11.1121C7.65058 11.2566 7.49233 11.3918 7.32741 11.5168C7.3271 11.517 7.32679 11.5173 7.32643 11.5175C7.13268 11.663 6.86728 11.663 6.67352 11.5175C6.67319 11.5173 6.67286 11.517 6.67254 11.5168C6.50764 11.3918 6.34937 11.2566 6.1987 11.1121C5.91842 10.8434 5.58646 10.4979 5.37613 10.1058C5.20241 9.78184 5.11168 9.42609 5.20161 9.05536C5.28778 8.70005 5.56264 8.38792 5.89964 8.34434C6.28931 8.29395 6.74299 8.57375 6.99998 8.89516C7.25695 8.57375 7.71063 8.29395 8.10031 8.34434C8.43733 8.38792 8.71216 8.70005 8.79835 9.05536C8.88827 9.42609 8.79755 9.78184 8.62383 10.1058ZM12.5202 11.0179C12.3548 10.2606 11.9603 9.57778 11.5239 8.94493C10.5015 7.46231 8.86407 5.96517 6.99998 5.96517C5.14356 5.96517 3.49866 7.46197 2.47607 8.94493C2.03968 9.57778 1.64519 10.2606 1.47973 11.0179C1.31423 11.7751 1.40474 12.6218 1.86445 13.237C2.32415 13.8521 3.19493 14.1592 3.87589 13.8262C4.28075 13.6283 4.6084 13.229 5.05503 13.1907C5.46505 13.1554 5.82741 13.4372 6.16937 13.6728C6.41654 13.843 6.71448 13.998 6.99998 14C7.28546 13.998 7.58342 13.843 7.83059 13.6728C8.17255 13.4372 8.53489 13.1554 8.94492 13.1907C9.39156 13.229 9.71921 13.6283 10.1241 13.8262C10.805 14.1592 11.6758 13.8521 12.1355 13.237C12.5952 12.6218 12.6857 11.7751 12.5202 11.0179" fill="#6750A3"/>
</svg>
